<svg data-v-423bf9ae="" xmlns="http://www.w3.org/2000/svg" viewBox="0 0 612 90" class="iconLeftSlogan"><!----><!----><!----><g data-v-423bf9ae="" id="52a76599-682f-41c7-ac59-bd1e0d7d3b9a" fill="#0C203C" transform="matrix(5.586592297827701,0,0,5.586592297827701,140.535206321926,-16.20111867331645)"><path d="M9.67 6.24L7.56 6.24L7.56 6.24Q7.18 5.69 6.87 5.47L6.87 5.47L6.87 5.47Q6.56 5.24 6.21 5.14L6.21 5.14L6.21 5.14Q5.85 5.04 5.46 5.04L5.46 5.04L5.46 5.04Q4.89 5.04 4.40 5.29L4.40 5.29L4.40 5.29Q3.90 5.55 3.54 5.99L3.54 5.99L3.54 5.99Q3.19 6.43 2.98 7.02L2.98 7.02L2.98 7.02Q2.78 7.60 2.78 8.26L2.78 8.26L2.78 8.26Q2.78 8.92 2.98 9.51L2.98 9.51L2.98 9.51Q3.18 10.09 3.53 10.53L3.53 10.53L3.53 10.53Q3.89 10.96 4.38 11.22L4.38 11.22L4.38 11.22Q4.87 11.48 5.46 11.48L5.46 11.48L5.46 11.48Q5.87 11.48 6.23 11.34L6.23 11.34L6.23 11.34Q6.58 11.21 6.87 10.99L6.87 10.99L6.87 10.99Q7.16 10.77 7.38 10.49L7.38 10.49L7.38 10.49Q7.60 10.21 7.72 9.90L7.72 9.90L9.93 10.51L9.93 10.51Q9.71 11.18 9.30 11.75L9.30 11.75L9.30 11.75Q8.89 12.33 8.32 12.74L8.32 12.74L8.32 12.74Q7.74 13.16 7.02 13.40L7.02 13.40L7.02 13.40Q6.30 13.64 5.46 13.64L5.46 13.64L5.46 13.64Q4.76 13.64 4.12 13.45L4.12 13.45L4.12 13.45Q3.47 13.25 2.92 12.91L2.92 12.91L2.92 12.91Q2.36 12.56 1.90 12.07L1.90 12.07L1.90 12.07Q1.45 11.57 1.13 10.98L1.13 10.98L1.13 10.98Q0.81 10.38 0.63 9.69L0.63 9.69L0.63 9.69Q0.45 9.00 0.45 8.26L0.45 8.26L0.45 8.26Q0.45 7.14 0.84 6.17L0.84 6.17L0.84 6.17Q1.23 5.20 1.91 4.47L1.91 4.47L1.91 4.47Q2.58 3.74 3.50 3.32L3.50 3.32L3.50 3.32Q4.41 2.90 5.46 2.90L5.46 2.90L5.46 2.90Q6.30 2.90 6.88 3.11L6.88 3.11L6.88 3.11Q7.45 3.32 8.14 3.93L8.14 3.93L9.67 3.93L9.67 6.24ZM16.73 13.45L16.73 11.58L17.76 11.58L17.29 10.09L14.11 10.09L13.64 11.58L14.74 11.58L14.74 13.45L10.81 13.45L10.81 11.58L11.58 11.58L14.40 3.09L17.14 3.09L19.91 11.58L20.66 11.58L20.66 13.45L16.73 13.45ZM15.69 4.97L14.65 8.34L16.74 8.34L15.69 4.97ZM21.59 4.97L21.59 3.09L27.07 3.09L27.07 3.09Q27.87 3.09 28.50 3.33L28.50 3.33L28.50 3.33Q29.13 3.57 29.56 3.97L29.56 3.97L29.56 3.97Q29.99 4.37 30.22 4.90L30.22 4.90L30.22 4.90Q30.45 5.43 30.45 6.00L30.45 6.00L30.45 6.00Q30.45 6.53 30.33 6.92L30.33 6.92L30.33 6.92Q30.22 7.32 30.01 7.63L30.01 7.63L30.01 7.63Q29.79 7.94 29.48 8.17L29.48 8.17L29.48 8.17Q29.16 8.41 28.76 8.60L28.76 8.60L28.76 8.60Q29.11 8.78 29.37 9.14L29.37 9.14L29.37 9.14Q29.64 9.51 29.78 10.09L29.78 10.09L30.13 11.44L30.98 11.44L30.99 13.45L27.99 13.45L27.58 10.99L27.58 10.99Q27.51 10.55 27.39 10.24L27.39 10.24L27.39 10.24Q27.26 9.92 27.05 9.72L27.05 9.72L27.05 9.72Q26.84 9.52 26.53 9.42L26.53 9.42L26.53 9.42Q26.23 9.32 25.81 9.32L25.81 9.32L24.93 9.32L24.93 11.58L25.88 11.58L25.88 13.45L21.59 13.45L21.59 11.58L22.66 11.58L22.66 4.97L21.59 4.97ZM26.29 4.97L24.93 4.97L24.93 7.48L26.29 7.48L26.29 7.48Q26.68 7.48 26.99 7.41L26.99 7.41L26.99 7.41Q27.30 7.33 27.52 7.18L27.52 7.18L27.52 7.18Q27.75 7.03 27.87 6.79L27.87 6.79L27.87 6.79Q27.99 6.56 27.99 6.24L27.99 6.24L27.99 6.24Q27.99 5.64 27.56 5.30L27.56 5.30L27.56 5.30Q27.13 4.97 26.29 4.97L26.29 4.97ZM36.63 13.45L36.63 11.58L37.70 11.58L37.70 4.90L36.44 4.90L36.44 6.24L34.21 6.24L34.21 3.09L43.64 3.09L43.64 6.24L41.40 6.24L41.40 4.90L39.97 4.90L39.97 11.58L41.06 11.58L41.06 13.45L36.63 13.45ZM49.31 13.64L49.31 13.64L49.31 13.64Q48.61 13.64 47.97 13.45L47.97 13.45L47.97 13.45Q47.33 13.25 46.77 12.91L46.77 12.91L46.77 12.91Q46.21 12.56 45.76 12.07L45.76 12.07L45.76 12.07Q45.30 11.58 44.98 10.98L44.98 10.98L44.98 10.98Q44.66 10.38 44.48 9.70L44.48 9.70L44.48 9.70Q44.30 9.02 44.30 8.27L44.30 8.27L44.30 8.27Q44.30 7.53 44.48 6.84L44.48 6.84L44.48 6.84Q44.66 6.15 44.98 5.55L44.98 5.55L44.98 5.55Q45.30 4.96 45.76 4.47L45.76 4.47L45.76 4.47Q46.21 3.98 46.77 3.63L46.77 3.63L46.77 3.63Q47.33 3.28 47.97 3.09L47.97 3.09L47.97 3.09Q48.61 2.90 49.31 2.90L49.31 2.90L49.31 2.90Q50.02 2.90 50.66 3.09L50.66 3.09L50.66 3.09Q51.31 3.28 51.87 3.63L51.87 3.63L51.87 3.63Q52.42 3.98 52.88 4.47L52.88 4.47L52.88 4.47Q53.33 4.96 53.66 5.55L53.66 5.55L53.66 5.55Q53.98 6.15 54.16 6.84L54.16 6.84L54.16 6.84Q54.34 7.53 54.34 8.27L54.34 8.27L54.34 8.27Q54.34 9.01 54.16 9.70L54.16 9.70L54.16 9.70Q53.98 10.38 53.66 10.98L53.66 10.98L53.66 10.98Q53.33 11.58 52.88 12.07L52.88 12.07L52.88 12.07Q52.42 12.56 51.87 12.91L51.87 12.91L51.87 12.91Q51.31 13.25 50.66 13.45L50.66 13.45L50.66 13.45Q50.02 13.64 49.31 13.64ZM49.31 11.49L49.31 11.49L49.31 11.49Q49.91 11.49 50.40 11.23L50.40 11.23L50.40 11.23Q50.90 10.98 51.26 10.54L51.26 10.54L51.26 10.54Q51.61 10.10 51.81 9.51L51.81 9.51L51.81 9.51Q52.00 8.93 52.00 8.27L52.00 8.27L52.00 8.27Q52.00 7.61 51.80 7.02L51.80 7.02L51.80 7.02Q51.60 6.43 51.25 5.99L51.25 5.99L51.25 5.99Q50.89 5.55 50.39 5.29L50.39 5.29L50.39 5.29Q49.90 5.04 49.31 5.04L49.31 5.04L49.31 5.04Q48.73 5.04 48.23 5.29L48.23 5.29L48.23 5.29Q47.74 5.55 47.39 5.99L47.39 5.99L47.39 5.99Q47.03 6.43 46.83 7.02L46.83 7.02L46.83 7.02Q46.63 7.61 46.63 8.27L46.63 8.27L46.63 8.27Q46.63 8.93 46.83 9.51L46.83 9.51L46.83 9.51Q47.03 10.10 47.39 10.54L47.39 10.54L47.39 10.54Q47.74 10.98 48.23 11.23L48.23 11.23L48.23 11.23Q48.73 11.49 49.31 11.49ZM55.49 4.97L55.49 3.09L59.47 3.09L59.47 3.09Q60.18 3.09 60.83 3.27L60.83 3.27L60.83 3.27Q61.48 3.46 62.05 3.79L62.05 3.79L62.05 3.79Q62.61 4.13 63.07 4.60L63.07 4.60L63.07 4.60Q63.53 5.07 63.86 5.64L63.86 5.64L63.86 5.64Q64.19 6.21 64.37 6.88L64.37 6.88L64.37 6.88Q64.54 7.54 64.54 8.26L64.54 8.26L64.54 8.26Q64.54 8.98 64.37 9.64L64.37 9.64L64.37 9.64Q64.19 10.30 63.86 10.88L63.86 10.88L63.86 10.88Q63.53 11.46 63.07 11.93L63.07 11.93L63.07 11.93Q62.61 12.41 62.05 12.75L62.05 12.75L62.05 12.75Q61.48 13.08 60.83 13.27L60.83 13.27L60.83 13.27Q60.18 13.45 59.47 13.45L59.47 13.45L55.49 13.45L55.49 11.58L56.31 11.58L56.31 4.97L55.49 4.97ZM59.45 4.97L58.58 4.97L58.58 11.58L59.45 11.58L59.45 11.58Q60.01 11.58 60.50 11.32L60.50 11.32L60.50 11.32Q60.99 11.06 61.35 10.61L61.35 10.61L61.35 10.61Q61.71 10.17 61.93 9.56L61.93 9.56L61.93 9.56Q62.14 8.96 62.14 8.26L62.14 8.26L62.14 8.26Q62.14 7.57 61.93 6.97L61.93 6.97L61.93 6.97Q61.71 6.36 61.35 5.92L61.35 5.92L61.35 5.92Q60.99 5.48 60.50 5.22L60.50 5.22L60.50 5.22Q60.01 4.97 59.45 4.97L59.45 4.97ZM71.07 13.45L71.07 11.58L72.10 11.58L71.63 10.09L68.45 10.09L67.98 11.58L69.08 11.58L69.08 13.45L65.15 13.45L65.15 11.58L65.92 11.58L68.74 3.09L71.48 3.09L74.25 11.58L75.00 11.58L75.00 13.45L71.07 13.45ZM70.03 4.97L68.99 8.34L71.08 8.34L70.03 4.97ZM74.45 4.97L74.45 3.09L78.89 3.09L78.89 4.97L78.02 4.97L79.41 7.35L80.88 4.97L79.88 4.97L79.88 3.09L84.32 3.09L84.32 4.97L83.56 4.97L80.47 9.15L80.47 11.58L81.73 11.58L81.73 13.45L77.11 13.45L77.11 11.58L78.26 11.58L78.26 9.13L75.36 4.97L74.45 4.97Z"></path></g><defs data-v-423bf9ae=""><linearGradient data-v-423bf9ae="" gradientTransform="rotate(25)" id="346b6afa-2ce8-4600-8eaf-c226284b7cda" x1="0%" y1="0%" x2="100%" y2="0%"><stop data-v-423bf9ae="" offset="0%" style="stop-color: rgb(40, 139, 88); stop-opacity: 1;"></stop><stop data-v-423bf9ae="" offset="100%" style="stop-color: rgb(21, 34, 241); stop-opacity: 1;"></stop></linearGradient></defs><g data-v-423bf9ae="" id="d9302f5e-7c83-41e9-8afd-7586c9ab4acf" transform="matrix(1.4754096515330766,0,0,1.4754096515330766,-11.470483792979252,-28.27048820489499)" stroke="none" fill="url(#346b6afa-2ce8-4600-8eaf-c226284b7cda)"><path d="M71.1 64.5c-1.4 0-2.7-.5-3.6-1.5l-8-8c-2-2-2-5.3 0-7.3s5.3-2 7.3 0l8 8c2 2 2 5.3 0 7.3-1.1 1-2.3 1.5-3.7 1.5zM63 49c-.6 0-1.2.2-1.7.7-.9.9-.9 2.4 0 3.3l8 8c.9.9 2.5.9 3.3 0 .9-.9.9-2.4 0-3.3l-8-8c-.4-.5-1-.7-1.6-.7z"></path><path d="M65.8 69.9c-1.4 0-2.7-.5-3.6-1.5l-8-8c-1-1-1.5-2.3-1.5-3.6 0-1.4.5-2.7 1.5-3.6 1-1 2.3-1.5 3.6-1.5s2.7.5 3.6 1.5l8 8c2 2 2 5.3 0 7.3l-1-1 1 1c-1 .8-2.3 1.4-3.6 1.4zm-8.1-15.6c-.6 0-1.2.2-1.7.7-.4.4-.7 1-.7 1.7 0 .6.2 1.2.7 1.7l8 8c.9.9 2.5.9 3.3 0 .4-.4.7-1 .7-1.7 0-.6-.2-1.2-.7-1.7l-8-8c-.4-.5-1-.7-1.6-.7z"></path><path d="M60.4 75.2c-1.4 0-2.7-.5-3.6-1.5l-8-8c-2-2-2-5.3 0-7.3s5.3-2 7.3 0l8 8c2 2 2 5.3 0 7.3-1 .9-2.3 1.5-3.7 1.5zm-8-15.6c-.6 0-1.2.2-1.7.7-.9.9-.9 2.4 0 3.3l8 8c.9.9 2.5.9 3.3 0 .9-.9.9-2.4 0-3.3l-8-8c-.4-.4-1-.7-1.6-.7z"></path><path d="M55.1 80.5c-1.3 0-2.6-.5-3.6-1.5l-8-8c-1-1-1.5-2.3-1.5-3.6 0-1.4.5-2.7 1.5-3.6 1-1 2.3-1.5 3.6-1.5 1.4 0 2.7.5 3.6 1.5l8 8c2 2 2 5.3 0 7.3-1 .9-2.3 1.4-3.6 1.4zm-8-15.5c-.6 0-1.2.2-1.7.7-.4.4-.7 1-.7 1.7 0 .6.2 1.2.7 1.7l8 8c.9.9 2.4.9 3.3 0 .9-.9.9-2.4 0-3.3l-8-8c-.4-.6-1-.8-1.6-.8zM15.6 44.9c-1.2 0-2.4-.5-3.2-1.3L8.7 40c-.3-.3-.4-.6-.4-1s.1-.7.4-1l18.1-18.1c.3-.3.6-.4 1-.4s.7.1 1 .4l5.8 5.8c.5.5.5 1.4 0 2L18.8 43.6c-.9.8-2 1.3-3.2 1.3zM11.7 39l2.6 2.6c.7.7 1.8.7 2.5 0l14.9-14.9-3.9-3.9L11.7 39z"></path><path d="M44.9 80.5c-1.4 0-2.7-.5-3.6-1.5h-.1c-1-1-1.5-2.4-1.5-3.8-1.4 0-2.8-.5-3.8-1.5l-.1-.1c-1-1-1.5-2.4-1.5-3.8-1.3 0-2.7-.5-3.8-1.5l-.1-.1c-1-1-1.5-2.2-1.5-3.6v-.1c-1.3 0-2.7-.5-3.8-1.5h.1c-1-1-1.5-2.2-1.5-3.6s.5-2.7 1.5-3.6l1.5-1.5L16.4 44c-.3-.3-.4-.6-.4-1s.1-.7.4-1l14.3-14.3c.3-.3.6-.4 1-.4s.7.1 1 .4l2.9 2.9c1.4 1.4 3.6 1.4 5 0 1.2-1.2 2.8-1.8 4.5-1.8s3.3.7 4.5 1.8l11.8 11.8c.3.3.4.6.4 1s-.1.7-.4 1l-2.5 2.5c-.9.9-2.2 1.4-3.5 1.4s-2.6-.5-3.5-1.4L45 40 27.2 57.7c-.4.4-.7 1-.7 1.6s.2 1.2.7 1.6l.1.1c.9.9 2.4.9 3.3 0 .5-.5 1.4-.5 2 0 .3.3.4.6.4 1s-.1.7-.4 1c-.4.4-.7 1-.7 1.6 0 .6.2 1.2.7 1.6l.1.1c.9.9 2.4.9 3.3 0 .5-.5 1.4-.5 2 0 .5.5.6 1.4 0 2-.9.9-.9 2.4 0 3.3l.1.1c.9.9 2.4.9 3.3 0 .5-.5 1.4-.5 2 0 .3.3.4.6.4 1s-.1.7-.4 1c-.4.4-.7 1-.7 1.6 0 .6.2 1.2.7 1.6l.1.1c.9.9 2.4.9 3.3 0l2.4-2.4c.5-.5 1.4-.5 2 0s.5 1.4 0 2L48.5 79c-1 1-2.2 1.5-3.6 1.5zM19.4 43l9.3 9.3L44 37c.5-.5 1.4-.5 2 0l7.8 7.8c.8.8 2.2.8 3 0l1.5-1.5-10.8-10.8c-.7-.7-1.5-1-2.5-1s-1.8.4-2.5 1C40 35 36 35 33.6 32.5l-1.9-1.9L19.4 43z"></path><path d="M71.3 55.6c-.4 0-.7-.1-1-.4-.5-.5-.5-1.4 0-2L80.6 43 68.2 30.6l-1.9 1.9c-1.2 1.2-2.8 1.8-4.5 1.8s-3.3-.7-4.5-1.8c-1.4-1.4-3.6-1.4-5 0L51 33.8c-.5.5-1.4.5-2 0-.5-.5-.5-1.4 0-2l1.3-1.3c2.5-2.5 6.5-2.5 8.9 0 .7.7 1.5 1 2.5 1s1.8-.4 2.5-1l2.9-2.9c.5-.5 1.4-.5 2 0L83.6 42c.5.5.5 1.4 0 2L72.3 55.2c-.2.3-.6.4-1 .4z"></path><path d="M84.4 44.9c-1.2 0-2.4-.5-3.2-1.3L65.3 27.7c-.5-.5-.5-1.4 0-2l5.8-5.8c.5-.5 1.5-.5 2 0L91.3 38c.3.3.4.6.4 1s-.1.7-.4 1l-3.6 3.6c-.9.8-2.1 1.3-3.3 1.3zM68.3 26.7l14.9 14.9c.7.7 1.8.7 2.5 0l2.6-2.6-16.1-16.1-3.9 3.8z"></path></g><!----><g data-v-423bf9ae="" id="9187ae7f-e2cd-4d8f-89f7-779e45422b4a" fill="#0C203C" transform="matrix(1.1738632108625948,0,0,1.1738632108625948,139.44541350970704,54.37719562293337)"><path d="M3.21 15.61L3.21 15.61L3.21 15.61Q3.14 15.04 3.10 14.36L3.10 14.36L3.10 14.36Q3.07 13.68 3.07 13.09L3.07 13.09L3.07 13.09Q3.07 12.15 3.13 11.29L3.13 11.29L3.13 11.29Q3.19 10.43 3.28 9.48L3.28 9.48L3.28 9.48Q3.37 8.54 3.49 7.43L3.49 7.43L3.49 7.43Q3.60 6.31 3.68 4.86L3.68 4.86L3.68 4.86Q3.86 4.86 4.21 4.96L4.21 4.96L4.21 4.96Q4.55 5.07 4.90 5.21L4.90 5.21L4.90 5.21Q5.25 5.35 5.52 5.49L5.52 5.49L5.52 5.49Q5.78 5.64 5.82 5.74L5.82 5.74L5.82 5.74Q5.59 6.29 5.40 7.18L5.40 7.18L5.40 7.18Q5.21 8.06 5.08 9.11L5.08 9.11L5.08 9.11Q4.96 10.16 4.89 11.27L4.89 11.27L4.89 11.27Q4.82 12.38 4.82 13.34L4.82 13.34L4.82 13.34Q4.82 13.79 4.83 14.22L4.83 14.22L4.83 14.22Q4.84 14.66 4.87 15.02L4.87 15.02L4.87 15.02Q5.17 14.59 5.55 13.78L5.55 13.78L5.55 13.78Q5.94 12.98 6.35 11.98L6.35 11.98L6.35 11.98Q6.76 10.99 7.17 9.91L7.17 9.91L7.17 9.91Q7.59 8.82 7.94 7.83L7.94 7.83L7.94 7.83Q8.29 6.85 8.53 6.05L8.53 6.05L8.53 6.05Q8.78 5.26 8.88 4.86L8.88 4.86L8.88 4.86Q9.06 4.86 9.42 4.96L9.42 4.96L9.42 4.96Q9.77 5.07 10.12 5.21L10.12 5.21L10.12 5.21Q10.46 5.35 10.72 5.49L10.72 5.49L10.72 5.49Q10.99 5.64 11.02 5.74L11.02 5.74L11.02 5.74Q10.78 6.29 10.59 7.18L10.59 7.18L10.59 7.18Q10.40 8.06 10.28 9.11L10.28 9.11L10.28 9.11Q10.15 10.16 10.08 11.27L10.08 11.27L10.08 11.27Q10.01 12.38 10.01 13.34L10.01 13.34L10.01 13.34Q10.01 13.75 10.02 14.15L10.02 14.15L10.02 14.15Q10.02 14.55 10.05 14.87L10.05 14.87L10.05 14.87Q10.50 13.71 10.98 12.56L10.98 12.56L10.98 12.56Q11.47 11.42 11.94 10.38L11.94 10.38L11.94 10.38Q12.42 9.34 12.87 8.43L12.87 8.43L12.87 8.43Q13.31 7.53 13.69 6.82L13.69 6.82L13.69 6.82Q14.07 6.12 14.35 5.66L14.35 5.66L14.35 5.66Q14.63 5.19 14.78 5.04L14.78 5.04L14.78 5.04Q15.11 5.08 15.45 5.27L15.45 5.27L15.45 5.27Q15.79 5.46 16.06 5.75L16.06 5.75L16.06 5.75Q15.65 6.08 15.13 6.81L15.13 6.81L15.13 6.81Q14.62 7.55 14.07 8.51L14.07 8.51L14.07 8.51Q13.52 9.48 12.97 10.57L12.97 10.57L12.97 10.57Q12.42 11.66 11.94 12.70L11.94 12.70L11.94 12.70Q11.47 13.73 11.10 14.63L11.10 14.63L11.10 14.63Q10.72 15.53 10.53 16.07L10.53 16.07L10.53 16.07Q10.16 16.24 9.81 16.24L9.81 16.24L9.81 16.24Q9.37 16.18 8.97 16.02L8.97 16.02L8.97 16.02Q8.57 15.85 8.40 15.61L8.40 15.61L8.40 15.61Q8.36 15.39 8.33 15.09L8.33 15.09L8.33 15.09Q8.30 14.78 8.29 14.49L8.29 14.49L8.29 14.49Q8.27 14.20 8.27 13.92L8.27 13.92L8.27 13.92Q8.26 13.65 8.26 13.45L8.26 13.45L8.26 13.45Q8.26 12.21 8.36 10.91L8.36 10.91L8.36 10.91Q8.46 9.62 8.60 8.13L8.60 8.13L8.60 8.13Q8.27 9.09 7.88 10.18L7.88 10.18L7.88 10.18Q7.49 11.27 7.06 12.34L7.06 12.34L7.06 12.34Q6.64 13.41 6.20 14.38L6.20 14.38L6.20 14.38Q5.75 15.36 5.33 16.07L5.33 16.07L5.33 16.07Q4.97 16.24 4.62 16.24L4.62 16.24L4.62 16.24Q4.17 16.18 3.77 16.02L3.77 16.02L3.77 16.02Q3.37 15.85 3.21 15.61ZM27.22 14.36L27.22 14.36L27.22 14.36Q27.22 13.78 27.41 12.85L27.41 12.85L27.41 12.85Q27.61 11.93 27.93 10.88L27.93 10.88L27.93 10.88Q27.01 10.95 26.07 11.06L26.07 11.06L26.07 11.06Q25.14 11.17 24.46 11.19L24.46 11.19L24.46 11.19Q23.83 12.66 23.46 13.89L23.46 13.89L23.46 13.89Q23.09 15.13 22.88 16.31L22.88 16.31L22.88 16.31Q22.34 16.18 21.99 15.87L21.99 15.87L21.99 15.87Q21.64 15.55 21.35 15.08L21.35 15.08L21.35 15.08Q21.46 14.85 21.61 14.50L21.61 14.50L21.61 14.50Q21.76 14.15 21.96 13.66L21.96 13.66L21.96 13.66Q22.16 13.16 22.42 12.50L22.42 12.50L22.42 12.50Q22.68 11.83 23.02 10.95L23.02 10.95L23.02 10.95Q22.55 10.75 22.40 10.40L22.40 10.40L22.40 10.40Q22.47 10.35 22.71 10.28L22.71 10.28L22.71 10.28Q22.96 10.22 23.32 10.15L23.32 10.15L23.51 9.70L23.51 9.70Q23.80 8.95 23.99 8.43L23.99 8.43L23.99 8.43Q24.18 7.91 24.31 7.41L24.31 7.41L24.31 7.41Q24.44 6.92 24.56 6.31L24.56 6.31L24.56 6.31Q24.68 5.71 24.85 4.79L24.85 4.79L24.85 4.79Q25.44 4.90 25.92 5.31L25.92 5.31L25.92 5.31Q26.40 5.71 26.75 6.29L26.75 6.29L26.75 6.29Q26.63 6.45 26.45 6.79L26.45 6.79L26.45 6.79Q26.26 7.13 26.05 7.59L26.05 7.59L26.05 7.59Q25.83 8.06 25.58 8.64L25.58 8.64L25.58 8.64Q25.33 9.23 25.03 9.87L25.03 9.87L25.03 9.87Q25.90 9.76 26.79 9.66L26.79 9.66L26.79 9.66Q27.68 9.56 28.36 9.52L28.36 9.52L28.36 9.52Q28.62 8.79 28.89 8.10L28.89 8.10L28.89 8.10Q29.16 7.41 29.43 6.83L29.43 6.83L29.43 6.83Q29.69 6.26 29.94 5.82L29.94 5.82L29.94 5.82Q30.18 5.39 30.38 5.18L30.38 5.18L30.38 5.18Q30.52 5.19 30.75 5.29L30.75 5.29L30.75 5.29Q30.98 5.38 31.22 5.50L31.22 5.50L31.22 5.50Q31.46 5.63 31.65 5.78L31.65 5.78L31.65 5.78Q31.85 5.92 31.92 6.05L31.92 6.05L31.92 6.05Q31.67 6.29 31.42 6.66L31.42 6.66L31.42 6.66Q31.16 7.04 30.92 7.53L30.92 7.53L30.92 7.53Q30.67 8.02 30.44 8.60L30.44 8.60L30.44 8.60Q30.20 9.17 29.99 9.79L29.99 9.79L29.99 9.79Q30.27 10.04 30.27 10.42L30.27 10.42L30.27 10.42Q30.27 10.68 30.16 10.91L30.16 10.91L30.16 10.91Q30.03 10.88 29.90 10.87L29.90 10.87L29.90 10.87Q29.78 10.86 29.64 10.85L29.64 10.85L29.64 10.85Q29.40 11.61 29.20 12.35L29.20 12.35L29.20 12.35Q29.01 13.09 28.88 13.76L28.88 13.76L28.88 13.76Q28.74 14.43 28.66 14.99L28.66 14.99L28.66 14.99Q28.59 15.55 28.59 15.93L28.59 15.93L28.59 15.93Q28.59 16.07 28.59 16.16L28.59 16.16L28.59 16.16Q28.60 16.24 28.62 16.30L28.62 16.30L28.62 16.30Q28.31 16.28 28.17 16.19L28.17 16.19L28.17 16.19Q28.03 16.10 27.96 16.00L27.96 16.00L27.96 16.00Q27.89 15.89 27.83 15.79L27.83 15.79L27.83 15.79Q27.78 15.68 27.65 15.62L27.65 15.62L27.65 15.62Q27.55 15.58 27.47 15.43L27.47 15.43L27.47 15.43Q27.38 15.27 27.33 15.08L27.33 15.08L27.33 15.08Q27.27 14.88 27.24 14.69L27.24 14.69L27.24 14.69Q27.22 14.49 27.22 14.36ZM43.99 9.21L43.99 9.21L43.99 9.21Q44.45 9.21 44.71 9.46L44.71 9.46L44.71 9.46Q44.97 9.72 44.97 10.16L44.97 10.16L44.97 10.16Q44.97 10.28 44.95 10.39L44.95 10.39L44.95 10.39Q44.93 10.51 44.90 10.60L44.90 10.60L44.90 10.60Q44.72 10.57 44.49 10.55L44.49 10.55L44.49 10.55Q44.27 10.53 43.96 10.53L43.96 10.53L43.96 10.53Q43.36 10.53 42.74 10.63L42.74 10.63L42.74 10.63Q42.13 10.74 41.57 10.81L41.57 10.81L41.57 10.81Q41.24 11.55 40.98 12.24L40.98 12.24L40.98 12.24Q40.71 12.94 40.52 13.51L40.52 13.51L40.52 13.51Q40.33 14.08 40.23 14.50L40.23 14.50L40.23 14.50Q40.12 14.92 40.11 15.13L40.11 15.13L40.11 15.13Q41.24 14.90 42.40 14.73L42.40 14.73L42.40 14.73Q43.55 14.56 44.83 14.48L44.83 14.48L44.83 14.48Q44.98 14.71 45.09 14.99L45.09 14.99L45.09 14.99Q45.19 15.27 45.19 15.60L45.19 15.60L45.19 15.60Q45.19 15.68 45.19 15.78L45.19 15.78L45.19 15.78Q45.19 15.88 45.16 15.97L45.16 15.97L45.16 15.97Q44.77 15.96 44.34 15.95L44.34 15.95L44.34 15.95Q43.90 15.95 43.20 15.95L43.20 15.95L43.20 15.95Q42.74 15.95 42.33 15.97L42.33 15.97L42.33 15.97Q41.92 15.99 41.50 16.03L41.50 16.03L41.50 16.03Q41.08 16.07 40.61 16.14L40.61 16.14L40.61 16.14Q40.14 16.21 39.55 16.31L39.55 16.31L39.55 16.31Q38.91 16.06 38.30 15.08L38.30 15.08L38.30 15.08Q38.54 14.57 38.97 13.54L38.97 13.54L38.97 13.54Q39.40 12.52 40.05 10.79L40.05 10.79L40.05 10.79Q39.42 10.60 39.23 10.09L39.23 10.09L39.23 10.09Q39.30 10.02 39.63 9.92L39.63 9.92L39.63 9.92Q39.97 9.81 40.46 9.70L40.46 9.70L40.46 9.70Q40.67 9.16 40.82 8.75L40.82 8.75L40.82 8.75Q40.96 8.34 41.08 7.99L41.08 7.99L41.08 7.99Q41.19 7.63 41.28 7.29L41.28 7.29L41.28 7.29Q41.37 6.94 41.45 6.54L41.45 6.54L41.45 6.54Q40.96 6.51 40.68 6.27L40.68 6.27L40.68 6.27Q40.40 6.02 40.40 5.63L40.40 5.63L40.40 5.63Q40.40 5.52 40.44 5.36L40.44 5.36L40.44 5.36Q40.47 5.21 40.52 5.10L40.52 5.10L40.52 5.10Q40.80 5.14 41.05 5.15L41.05 5.15L41.05 5.15Q41.31 5.17 41.73 5.17L41.73 5.17L41.73 5.17Q42.62 5.17 43.39 5.12L43.39 5.12L43.39 5.12Q44.16 5.07 44.78 5.01L44.78 5.01L44.78 5.01Q45.40 4.96 45.85 4.91L45.85 4.91L45.85 4.91Q46.30 4.86 46.54 4.86L46.54 4.86L46.54 4.86Q46.86 4.86 47.11 5.19L47.11 5.19L47.11 5.19Q47.36 5.53 47.49 6.15L47.49 6.15L47.49 6.15Q47.05 6.10 46.78 6.09L46.78 6.09L46.78 6.09Q46.51 6.08 46.30 6.08L46.30 6.08L46.30 6.08Q45.53 6.08 44.89 6.15L44.89 6.15L44.89 6.15Q44.25 6.23 43.67 6.31L43.67 6.31L43.67 6.31Q43.58 6.44 43.48 6.64L43.48 6.64L43.48 6.64Q43.37 6.83 43.20 7.18L43.20 7.18L43.20 7.18Q43.04 7.53 42.79 8.06L42.79 8.06L42.79 8.06Q42.55 8.60 42.20 9.39L42.20 9.39L42.20 9.39Q42.73 9.31 43.20 9.26L43.20 9.26L43.20 9.26Q43.67 9.21 43.99 9.21ZM54.98 16.24L54.98 16.24L54.98 16.24Q54.18 16.00 53.90 15.79L53.90 15.79L53.90 15.79Q53.62 15.57 53.62 15.19L53.62 15.19L53.62 15.19Q53.62 14.77 53.82 14.01L53.82 14.01L53.82 14.01Q54.01 13.24 54.33 12.31L54.33 12.31L54.33 12.31Q54.64 11.37 55.05 10.35L55.05 10.35L55.05 10.35Q55.45 9.32 55.87 8.39L55.87 8.39L55.87 8.39Q56.29 7.45 56.69 6.67L56.69 6.67L56.69 6.67Q57.09 5.89 57.40 5.46L57.40 5.46L57.30 4.87L57.30 4.87Q57.50 4.87 57.85 4.97L57.85 4.97L57.85 4.97Q58.20 5.07 58.55 5.21L58.55 5.21L58.55 5.21Q58.91 5.35 59.18 5.49L59.18 5.49L59.18 5.49Q59.46 5.64 59.49 5.74L59.49 5.74L59.49 5.74Q59.42 6.08 59.37 6.76L59.37 6.76L59.37 6.76Q59.33 7.43 59.33 8.20L59.33 8.20L59.33 8.20Q59.33 9.73 59.45 11.19L59.45 11.19L59.45 11.19Q59.57 12.66 60.00 14.17L60.00 14.17L60.00 14.17Q60.23 13.05 60.49 11.94L60.49 11.94L60.49 11.94Q60.75 10.82 61.03 9.81L61.03 9.81L61.03 9.81Q61.31 8.79 61.59 7.92L61.59 7.92L61.59 7.92Q61.87 7.06 62.13 6.40L62.13 6.40L62.13 6.40Q62.38 5.75 62.61 5.38L62.61 5.38L62.61 5.38Q62.83 5.01 63.01 4.98L63.01 4.98L63.01 4.98Q63.17 5.01 63.35 5.10L63.35 5.10L63.35 5.10Q63.53 5.19 63.70 5.32L63.70 5.32L63.70 5.32Q63.87 5.45 64.01 5.60L64.01 5.60L64.01 5.60Q64.15 5.75 64.23 5.91L64.23 5.91L64.23 5.91Q63.78 6.09 63.34 6.76L63.34 6.76L63.34 6.76Q62.90 7.43 62.50 8.39L62.50 8.39L62.50 8.39Q62.10 9.35 61.76 10.47L61.76 10.47L61.76 10.47Q61.42 11.59 61.16 12.68L61.16 12.68L61.16 12.68Q60.90 13.76 60.75 14.69L60.75 14.69L60.75 14.69Q60.61 15.61 60.59 16.17L60.59 16.17L60.59 16.17Q60.59 16.20 60.61 16.21L60.61 16.21L60.61 16.21Q60.56 16.23 60.52 16.23L60.52 16.23L60.52 16.23Q60.47 16.23 60.42 16.23L60.42 16.23L60.42 16.23Q59.78 16.23 59.28 16.07L59.28 16.07L59.28 16.07Q58.79 15.90 58.63 15.61L58.63 15.61L58.63 15.61Q58.34 14.43 58.14 13.34L58.14 13.34L58.14 13.34Q57.95 12.25 57.81 11.16L57.81 11.16L57.81 11.16Q57.68 10.07 57.60 8.95L57.60 8.95L57.60 8.95Q57.53 7.84 57.48 6.62L57.48 6.62L57.48 6.62Q57.22 7.04 56.92 7.72L56.92 7.72L56.92 7.72Q56.63 8.40 56.35 9.21L56.35 9.21L56.35 9.21Q56.07 10.02 55.81 10.92L55.81 10.92L55.81 10.92Q55.55 11.82 55.36 12.67L55.36 12.67L55.36 12.67Q55.16 13.52 55.05 14.29L55.05 14.29L55.05 14.29Q54.94 15.05 54.94 15.61L54.94 15.61L54.94 15.61Q54.94 15.90 54.94 16.03L54.94 16.03L54.94 16.03Q54.95 16.16 54.98 16.24ZM85.79 10.35L85.79 10.35L85.79 10.35Q86.84 9.20 87.67 7.91L87.67 7.91L87.67 7.91Q88.51 6.62 89.22 5.01L89.22 5.01L89.22 5.01Q89.59 5.05 89.92 5.21L89.92 5.21L89.92 5.21Q90.26 5.36 90.45 5.56L90.45 5.56L90.45 5.56Q89.68 6.48 89.06 7.24L89.06 7.24L89.06 7.24Q88.44 7.99 87.92 8.66L87.92 8.66L87.92 8.66Q87.40 9.32 86.96 9.93L86.96 9.93L86.96 9.93Q86.52 10.54 86.10 11.16L86.10 11.16L86.10 11.16Q85.89 11.87 85.71 12.60L85.71 12.60L85.71 12.60Q85.53 13.33 85.39 13.99L85.39 13.99L85.39 13.99Q85.25 14.66 85.17 15.22L85.17 15.22L85.17 15.22Q85.09 15.79 85.09 16.20L85.09 16.20L85.09 16.20Q84.94 16.20 84.60 16.14L84.60 16.14L84.60 16.14Q84.27 16.07 83.92 15.99L83.92 15.99L83.92 15.99Q83.57 15.90 83.28 15.82L83.28 15.82L83.28 15.82Q82.99 15.74 82.94 15.68L82.94 15.68L82.94 15.68Q83.16 15.30 83.38 14.75L83.38 14.75L83.38 14.75Q83.59 14.20 83.80 13.59L83.80 13.59L83.80 13.59Q84.01 12.98 84.21 12.36L84.21 12.36L84.21 12.36Q84.41 11.73 84.57 11.20L84.57 11.20L84.57 11.20Q84.22 10.11 83.89 9.15L83.89 9.15L83.89 9.15Q83.57 8.19 83.26 7.41L83.26 7.41L83.26 7.41Q82.95 6.64 82.67 6.08L82.67 6.08L82.67 6.08Q82.39 5.52 82.14 5.22L82.14 5.22L82.14 5.22Q82.28 5.17 82.56 5.11L82.56 5.11L82.56 5.11Q82.85 5.05 83.19 5.00L83.19 5.00L83.19 5.00Q83.54 4.94 83.89 4.91L83.89 4.91L83.89 4.91Q84.25 4.87 84.53 4.86L84.53 4.86L84.53 4.86Q84.53 5.21 84.59 5.71L84.59 5.71L84.59 5.71Q84.66 6.22 84.76 6.79L84.76 6.79L84.76 6.79Q84.87 7.36 85.01 7.95L85.01 7.95L85.01 7.95Q85.15 8.54 85.29 9.03L85.29 9.03L85.29 9.03Q85.43 9.52 85.56 9.88L85.56 9.88L85.56 9.88Q85.69 10.23 85.79 10.35ZM102.44 4.98L102.44 4.98L102.44 4.98Q102.70 5.10 102.98 5.27L102.98 5.27L102.98 5.27Q103.26 5.45 103.50 5.63L103.50 5.63L103.50 5.63Q103.74 5.81 103.90 5.98L103.90 5.98L103.90 5.98Q104.06 6.16 104.08 6.27L104.08 6.27L104.08 6.27Q103.84 6.22 103.60 6.20L103.60 6.20L103.60 6.20Q103.36 6.17 103.17 6.17L103.17 6.17L103.17 6.17Q102.54 6.17 101.91 6.48L101.91 6.48L101.91 6.48Q101.29 6.79 100.73 7.32L100.73 7.32L100.73 7.32Q100.17 7.85 99.69 8.57L99.69 8.57L99.69 8.57Q99.22 9.28 98.87 10.09L98.87 10.09L98.87 10.09Q98.53 10.91 98.34 11.77L98.34 11.77L98.34 11.77Q98.14 12.64 98.14 13.48L98.14 13.48L98.14 13.48Q98.14 14.57 98.50 15.11L98.50 15.11L98.50 15.11Q98.87 15.64 99.57 15.64L99.57 15.64L99.57 15.64Q99.90 15.64 100.30 15.51L100.30 15.51L100.30 15.51Q100.69 15.37 101.09 15.13L101.09 15.13L101.09 15.13Q101.50 14.90 101.89 14.56L101.89 14.56L101.89 14.56Q102.28 14.22 102.62 13.82L102.62 13.82L102.62 13.82Q103.11 13.23 103.50 12.48L103.50 12.48L103.50 12.48Q103.89 11.73 104.17 10.89L104.17 10.89L104.17 10.89Q104.44 10.05 104.59 9.16L104.59 9.16L104.59 9.16Q104.73 8.27 104.73 7.42L104.73 7.42L104.73 7.42Q104.73 7.08 104.72 6.85L104.72 6.85L104.72 6.85Q104.71 6.62 104.68 6.46L104.68 6.46L104.68 6.46Q104.66 6.30 104.65 6.20L104.65 6.20L104.65 6.20Q104.64 6.10 104.62 6.03L104.62 6.03L104.62 6.03Q104.79 6.12 104.99 6.24L104.99 6.24L104.99 6.24Q105.20 6.36 105.37 6.59L105.37 6.59L105.37 6.59Q105.55 6.82 105.66 7.20L105.66 7.20L105.66 7.20Q105.78 7.57 105.78 8.18L105.78 8.18L105.78 8.18Q105.78 9.16 105.55 10.10L105.55 10.10L105.55 10.10Q105.32 11.05 104.91 11.90L104.91 11.90L104.91 11.90Q104.50 12.75 103.94 13.50L103.94 13.50L103.94 13.50Q103.38 14.24 102.73 14.80L102.73 14.80L102.73 14.80Q101.89 15.54 100.94 15.95L100.94 15.95L100.94 15.95Q99.99 16.35 99.11 16.35L99.11 16.35L99.11 16.35Q97.82 16.35 97.14 15.53L97.14 15.53L97.14 15.53Q96.46 14.71 96.46 13.12L96.46 13.12L96.46 13.12Q96.46 12.26 96.65 11.31L96.65 11.31L96.65 11.31Q96.84 10.36 97.18 9.44L97.18 9.44L97.18 9.44Q97.52 8.51 98.00 7.68L98.00 7.68L98.00 7.68Q98.48 6.85 99.04 6.21L99.04 6.21L99.04 6.21Q99.61 5.57 100.26 5.19L100.26 5.19L100.26 5.19Q100.91 4.82 101.60 4.82L101.60 4.82L101.60 4.82Q101.82 4.82 102.02 4.85L102.02 4.85L102.02 4.85Q102.21 4.89 102.44 4.98ZM118.48 5.75L118.48 5.75L118.48 5.75Q117.87 6.58 117.36 7.57L117.36 7.57L117.36 7.57Q116.86 8.57 116.50 9.61L116.50 9.61L116.50 9.61Q116.14 10.65 115.95 11.67L115.95 11.67L115.95 11.67Q115.77 12.68 115.77 13.57L115.77 13.57L115.77 13.57Q115.77 14.66 116.09 15.15L116.09 15.15L116.09 15.15Q116.41 15.64 117.19 15.64L117.19 15.64L117.19 15.64Q118.10 15.64 118.79 15.00L118.79 15.00L118.79 15.00Q119.48 14.36 120.08 13.24L120.08 13.24L120.08 13.24Q120.47 12.52 120.75 11.65L120.75 11.65L120.75 11.65Q121.03 10.78 121.20 9.86L121.20 9.86L121.20 9.86Q121.38 8.95 121.46 8.02L121.46 8.02L121.46 8.02Q121.55 7.08 121.55 6.23L121.55 6.23L121.55 6.23Q121.55 5.68 121.53 5.43L121.53 5.43L121.53 5.43Q121.52 5.18 121.49 5.03L121.49 5.03L121.49 5.03Q121.53 5.03 121.70 5.05L121.70 5.05L121.70 5.05Q121.87 5.08 122.09 5.12L122.09 5.12L122.09 5.12Q122.30 5.17 122.52 5.24L122.52 5.24L122.52 5.24Q122.74 5.31 122.89 5.39L122.89 5.39L122.89 5.39Q122.82 6.45 122.63 7.59L122.63 7.59L122.63 7.59Q122.44 8.72 122.14 9.83L122.14 9.83L122.14 9.83Q121.83 10.93 121.42 11.96L121.42 11.96L121.42 11.96Q121.02 12.98 120.51 13.79L120.51 13.79L120.51 13.79Q119.77 14.99 118.85 15.67L118.85 15.67L118.85 15.67Q117.92 16.35 116.66 16.35L116.66 16.35L116.66 16.35Q115.37 16.35 114.66 15.60L114.66 15.60L114.66 15.60Q113.95 14.85 113.95 13.33L113.95 13.33L113.95 13.33Q113.95 12.45 114.14 11.33L114.14 11.33L114.14 11.33Q114.34 10.22 114.67 9.07L114.67 9.07L114.67 9.07Q115.00 7.91 115.43 6.81L115.43 6.81L115.43 6.81Q115.86 5.71 116.34 4.84L116.34 4.84L116.34 4.84Q116.58 4.86 116.90 4.94L116.90 4.94L116.90 4.94Q117.22 5.03 117.53 5.16L117.53 5.16L117.53 5.16Q117.84 5.29 118.10 5.45L118.10 5.45L118.10 5.45Q118.36 5.61 118.48 5.75ZM147.95 10.72L147.95 10.72L147.95 10.72Q148.32 10.72 148.53 10.98L148.53 10.98L148.53 10.98Q148.74 11.23 148.74 11.68L148.74 11.68L148.74 11.68Q148.74 11.79 148.72 11.91L148.72 11.91L148.72 11.91Q148.71 12.03 148.68 12.11L148.68 12.11L148.68 12.11Q148.39 12.04 148.04 12.03L148.04 12.03L148.04 12.03Q147.95 12.64 147.59 13.32L147.59 13.32L147.59 13.32Q147.22 14 146.71 14.60L146.71 14.60L146.71 14.60Q146.19 15.19 145.57 15.64L145.57 15.64L145.57 15.64Q144.96 16.09 144.35 16.24L144.35 16.24L144.35 16.24Q142.48 16.20 141.62 15.27L141.62 15.27L141.62 15.27Q140.76 14.34 140.76 12.36L140.76 12.36L140.76 12.36Q140.76 10.92 141.29 9.57L141.29 9.57L141.29 9.57Q141.82 8.22 142.70 7.17L142.70 7.17L142.70 7.17Q143.58 6.12 144.72 5.48L144.72 5.48L144.72 5.48Q145.87 4.84 147.10 4.84L147.10 4.84L147.10 4.84Q148.06 4.84 148.60 5.25L148.60 5.25L148.60 5.25Q149.14 5.66 149.14 6.40L149.14 6.40L149.14 6.40Q149.14 6.89 148.91 7.31L148.91 7.31L148.91 7.31Q148.68 7.73 148.15 8.22L148.15 8.22L148.15 8.22Q147.83 8.12 147.59 7.88L147.59 7.88L147.59 7.88Q147.35 7.63 147.29 7.31L147.29 7.31L147.29 7.31Q147.77 6.96 147.97 6.66L147.97 6.66L147.97 6.66Q148.16 6.37 148.16 5.96L148.16 5.96L148.16 5.96Q148.16 5.32 147.39 5.32L147.39 5.32L147.39 5.32Q146.76 5.32 146.04 5.79L146.04 5.79L146.04 5.79Q145.32 6.26 144.59 7.14L144.59 7.14L144.59 7.14Q143.56 8.39 143.08 9.71L143.08 9.71L143.08 9.71Q142.60 11.03 142.60 12.68L142.60 12.68L142.60 12.68Q142.60 13.30 142.73 13.80L142.73 13.80L142.73 13.80Q142.86 14.31 143.07 14.69L143.07 14.69L143.07 14.69Q143.28 15.06 143.56 15.29L143.56 15.29L143.56 15.29Q143.85 15.51 144.19 15.54L144.19 15.54L144.19 15.54Q144.63 15.44 145.08 15.09L145.08 15.09L145.08 15.09Q145.53 14.73 145.90 14.25L145.90 14.25L145.90 14.25Q146.27 13.76 146.53 13.21L146.53 13.21L146.53 13.21Q146.79 12.66 146.85 12.15L146.85 12.15L146.85 12.15Q146.45 12.24 146.10 12.31L146.10 12.31L146.10 12.31Q145.74 12.39 145.42 12.39L145.42 12.39L145.42 12.39Q145.00 12.39 144.68 12.18L144.68 12.18L144.68 12.18Q144.37 11.97 144.26 11.61L144.26 11.61L144.26 11.61Q144.51 11.47 144.99 11.31L144.99 11.31L144.99 11.31Q145.47 11.16 146.02 11.03L146.02 11.03L146.02 11.03Q146.57 10.89 147.09 10.81L147.09 10.81L147.09 10.81Q147.62 10.72 147.95 10.72ZM162.08 9.21L162.08 9.21L162.08 9.21Q162.54 9.21 162.80 9.46L162.80 9.46L162.80 9.46Q163.06 9.72 163.06 10.16L163.06 10.16L163.06 10.16Q163.06 10.28 163.04 10.39L163.04 10.39L163.04 10.39Q163.02 10.51 162.99 10.60L162.99 10.60L162.99 10.60Q162.81 10.57 162.58 10.55L162.58 10.55L162.58 10.55Q162.36 10.53 162.05 10.53L162.05 10.53L162.05 10.53Q161.45 10.53 160.83 10.63L160.83 10.63L160.83 10.63Q160.22 10.74 159.66 10.81L159.66 10.81L159.66 10.81Q159.33 11.55 159.07 12.24L159.07 12.24L159.07 12.24Q158.80 12.94 158.61 13.51L158.61 13.51L158.61 13.51Q158.42 14.08 158.32 14.50L158.32 14.50L158.32 14.50Q158.21 14.92 158.20 15.13L158.20 15.13L158.20 15.13Q159.33 14.90 160.49 14.73L160.49 14.73L160.49 14.73Q161.64 14.56 162.92 14.48L162.92 14.48L162.92 14.48Q163.07 14.71 163.18 14.99L163.18 14.99L163.18 14.99Q163.28 15.27 163.28 15.60L163.28 15.60L163.28 15.60Q163.28 15.68 163.28 15.78L163.28 15.78L163.28 15.78Q163.28 15.88 163.25 15.97L163.25 15.97L163.25 15.97Q162.86 15.96 162.43 15.95L162.43 15.95L162.43 15.95Q161.99 15.95 161.29 15.95L161.29 15.95L161.29 15.95Q160.83 15.95 160.42 15.97L160.42 15.97L160.42 15.97Q160.01 15.99 159.59 16.03L159.59 16.03L159.59 16.03Q159.17 16.07 158.70 16.14L158.70 16.14L158.70 16.14Q158.23 16.21 157.64 16.31L157.64 16.31L157.64 16.31Q157.00 16.06 156.39 15.08L156.39 15.08L156.39 15.08Q156.63 14.57 157.06 13.54L157.06 13.54L157.06 13.54Q157.49 12.52 158.14 10.79L158.14 10.79L158.14 10.79Q157.51 10.60 157.32 10.09L157.32 10.09L157.32 10.09Q157.39 10.02 157.72 9.92L157.72 9.92L157.72 9.92Q158.06 9.81 158.55 9.70L158.55 9.70L158.55 9.70Q158.76 9.16 158.91 8.75L158.91 8.75L158.91 8.75Q159.05 8.34 159.17 7.99L159.17 7.99L159.17 7.99Q159.28 7.63 159.37 7.29L159.37 7.29L159.37 7.29Q159.46 6.94 159.54 6.54L159.54 6.54L159.54 6.54Q159.05 6.51 158.77 6.27L158.77 6.27L158.77 6.27Q158.49 6.02 158.49 5.63L158.49 5.63L158.49 5.63Q158.49 5.52 158.53 5.36L158.53 5.36L158.53 5.36Q158.56 5.21 158.61 5.10L158.61 5.10L158.61 5.10Q158.89 5.14 159.14 5.15L159.14 5.15L159.14 5.15Q159.40 5.17 159.82 5.17L159.82 5.17L159.82 5.17Q160.71 5.17 161.48 5.12L161.48 5.12L161.48 5.12Q162.25 5.07 162.87 5.01L162.87 5.01L162.87 5.01Q163.49 4.96 163.94 4.91L163.94 4.91L163.94 4.91Q164.39 4.86 164.63 4.86L164.63 4.86L164.63 4.86Q164.95 4.86 165.20 5.19L165.20 5.19L165.20 5.19Q165.45 5.53 165.58 6.15L165.58 6.15L165.58 6.15Q165.14 6.10 164.87 6.09L164.87 6.09L164.87 6.09Q164.60 6.08 164.39 6.08L164.39 6.08L164.39 6.08Q163.62 6.08 162.98 6.15L162.98 6.15L162.98 6.15Q162.34 6.23 161.76 6.31L161.76 6.31L161.76 6.31Q161.67 6.44 161.57 6.64L161.57 6.64L161.57 6.64Q161.46 6.83 161.29 7.18L161.29 7.18L161.29 7.18Q161.13 7.53 160.88 8.06L160.88 8.06L160.88 8.06Q160.64 8.60 160.29 9.39L160.29 9.39L160.29 9.39Q160.82 9.31 161.29 9.26L161.29 9.26L161.29 9.26Q161.76 9.21 162.08 9.21ZM174.59 6.69L174.59 6.69L174.59 6.69Q174.03 6.69 173.73 6.38L173.73 6.38L173.73 6.38Q173.43 6.06 173.43 5.61L173.43 5.61L173.43 5.61Q173.43 5.50 173.47 5.35L173.47 5.35L173.47 5.35Q173.50 5.19 173.56 5.08L173.56 5.08L173.56 5.08Q173.74 5.17 174.10 5.20L174.10 5.20L174.10 5.20Q174.45 5.24 174.93 5.24L174.93 5.24L174.93 5.24Q175.64 5.24 176.55 5.17L176.55 5.17L176.55 5.17Q177.45 5.11 178.28 5.04L178.28 5.04L178.28 5.04Q179.10 4.97 179.73 4.91L179.73 4.91L179.73 4.91Q180.36 4.84 180.54 4.84L180.54 4.84L180.54 4.84Q181.06 4.84 181.29 5.23L181.29 5.23L181.29 5.23Q181.52 5.61 181.64 6.26L181.64 6.26L181.64 6.26Q181.27 6.23 180.91 6.21L180.91 6.21L180.91 6.21Q180.56 6.19 180.31 6.19L180.31 6.19L180.31 6.19Q179.86 6.19 179.40 6.22L179.40 6.22L179.40 6.22Q178.95 6.24 178.49 6.30L178.49 6.30L178.49 6.30Q178.29 6.71 178.05 7.26L178.05 7.26L178.05 7.26Q177.81 7.81 177.58 8.41L177.58 8.41L177.58 8.41Q177.35 9.02 177.14 9.61L177.14 9.61L177.14 9.61Q176.93 10.21 176.78 10.68L176.78 10.68L176.78 10.68Q176.47 11.61 176.24 12.39L176.24 12.39L176.24 12.39Q176.01 13.17 175.83 13.85L175.83 13.85L175.83 13.85Q175.66 14.53 175.53 15.15L175.53 15.15L175.53 15.15Q175.41 15.76 175.31 16.35L175.31 16.35L175.31 16.35Q174.37 16.21 173.74 15.18L173.74 15.18L173.74 15.18Q173.85 14.74 174.01 14.23L174.01 14.23L174.01 14.23Q174.17 13.72 174.39 13.07L174.39 13.07L174.39 13.07Q174.61 12.42 174.90 11.59L174.90 11.59L174.90 11.59Q175.20 10.77 175.57 9.72L175.57 9.72L175.57 9.72Q175.71 9.32 175.87 8.90L175.87 8.90L175.87 8.90Q176.02 8.47 176.17 8.05L176.17 8.05L176.17 8.05Q176.32 7.63 176.43 7.24L176.43 7.24L176.43 7.24Q176.55 6.85 176.64 6.52L176.64 6.52L176.64 6.52Q176.05 6.59 175.52 6.64L175.52 6.64L175.52 6.64Q175 6.69 174.59 6.69ZM197.81 14.38L197.81 14.38L197.81 14.38Q197.81 13.87 197.97 13.07L197.97 13.07L197.97 13.07Q198.13 12.26 198.39 11.33L198.39 11.33L198.39 11.33Q198.65 10.40 198.98 9.43L198.98 9.43L198.98 9.43Q199.32 8.46 199.67 7.60L199.67 7.60L199.67 7.60Q200.02 6.75 200.35 6.10L200.35 6.10L200.35 6.10Q200.69 5.46 200.96 5.18L200.96 5.18L200.96 5.18Q201.10 5.19 201.33 5.29L201.33 5.29L201.33 5.29Q201.56 5.38 201.80 5.50L201.80 5.50L201.80 5.50Q202.03 5.63 202.23 5.78L202.23 5.78L202.23 5.78Q202.43 5.92 202.48 6.05L202.48 6.05L202.48 6.05Q202.08 6.41 201.68 7.15L201.68 7.15L201.68 7.15Q201.28 7.88 200.91 8.82L200.91 8.82L200.91 8.82Q200.54 9.76 200.21 10.80L200.21 10.80L200.21 10.80Q199.89 11.84 199.65 12.82L199.65 12.82L199.65 12.82Q199.42 13.80 199.28 14.64L199.28 14.64L199.28 14.64Q199.15 15.48 199.15 16.00L199.15 16.00L199.15 16.00Q199.15 16.24 199.19 16.30L199.19 16.30L199.19 16.30Q198.88 16.28 198.74 16.19L198.74 16.19L198.74 16.19Q198.60 16.10 198.53 16.00L198.53 16.00L198.53 16.00Q198.45 15.89 198.39 15.79L198.39 15.79L198.39 15.79Q198.32 15.68 198.20 15.62L198.20 15.62L198.20 15.62Q198.10 15.58 198.03 15.43L198.03 15.43L198.03 15.43Q197.96 15.27 197.91 15.09L197.91 15.09L197.91 15.09Q197.86 14.90 197.83 14.70L197.83 14.70L197.83 14.70Q197.81 14.50 197.81 14.38ZM211.57 6.69L211.57 6.69L211.57 6.69Q211.01 6.69 210.71 6.38L210.71 6.38L210.71 6.38Q210.41 6.06 210.41 5.61L210.41 5.61L210.41 5.61Q210.41 5.50 210.44 5.35L210.44 5.35L210.44 5.35Q210.48 5.19 210.53 5.08L210.53 5.08L210.53 5.08Q210.71 5.17 211.07 5.20L211.07 5.20L211.07 5.20Q211.43 5.24 211.90 5.24L211.90 5.24L211.90 5.24Q212.62 5.24 213.52 5.17L213.52 5.17L213.52 5.17Q214.42 5.11 215.25 5.04L215.25 5.04L215.25 5.04Q216.08 4.97 216.71 4.91L216.71 4.91L216.71 4.91Q217.34 4.84 217.52 4.84L217.52 4.84L217.52 4.84Q218.04 4.84 218.27 5.23L218.27 5.23L218.27 5.23Q218.50 5.61 218.61 6.26L218.61 6.26L218.61 6.26Q218.25 6.23 217.89 6.21L217.89 6.21L217.89 6.21Q217.53 6.19 217.28 6.19L217.28 6.19L217.28 6.19Q216.83 6.19 216.38 6.22L216.38 6.22L216.38 6.22Q215.92 6.24 215.46 6.30L215.46 6.30L215.46 6.30Q215.26 6.71 215.03 7.26L215.03 7.26L215.03 7.26Q214.79 7.81 214.56 8.41L214.56 8.41L214.56 8.41Q214.33 9.02 214.12 9.61L214.12 9.61L214.12 9.61Q213.91 10.21 213.75 10.68L213.75 10.68L213.75 10.68Q213.44 11.61 213.21 12.39L213.21 12.39L213.21 12.39Q212.98 13.17 212.81 13.85L212.81 13.85L212.81 13.85Q212.63 14.53 212.51 15.15L212.51 15.15L212.51 15.15Q212.38 15.76 212.28 16.35L212.28 16.35L212.28 16.35Q211.34 16.21 210.71 15.18L210.71 15.18L210.71 15.18Q210.83 14.74 210.99 14.23L210.99 14.23L210.99 14.23Q211.15 13.72 211.36 13.07L211.36 13.07L211.36 13.07Q211.58 12.42 211.88 11.59L211.88 11.59L211.88 11.59Q212.17 10.77 212.55 9.72L212.55 9.72L212.55 9.72Q212.69 9.32 212.84 8.90L212.84 8.90L212.84 8.90Q213.00 8.47 213.14 8.05L213.14 8.05L213.14 8.05Q213.29 7.63 213.41 7.24L213.41 7.24L213.41 7.24Q213.53 6.85 213.61 6.52L213.61 6.52L213.61 6.52Q213.02 6.59 212.50 6.64L212.50 6.64L212.50 6.64Q211.97 6.69 211.57 6.69ZM222.11 17.54L222.11 17.54L222.11 17.54Q222.03 17.47 221.96 17.31L221.96 17.31L221.96 17.31Q221.89 17.15 221.89 17.01L221.89 17.01L221.89 17.01Q222.59 16.41 222.89 15.86L222.89 15.86L222.89 15.86Q223.19 15.32 223.19 14.67L223.19 14.67L223.19 14.67Q223.19 14.25 223.15 13.95L223.15 13.95L223.15 13.95Q223.12 13.65 223.02 13.26L223.02 13.26L223.02 13.26Q223.37 13.29 223.71 13.38L223.71 13.38L223.71 13.38Q224.06 13.47 224.33 13.60L224.33 13.60L224.33 13.60Q224.60 13.73 224.78 13.91L224.78 13.91L224.78 13.91Q224.97 14.08 225.01 14.25L225.01 14.25L225.01 14.25Q224.35 16.58 222.11 17.54ZM251.73 10.72L251.73 10.72L251.73 10.72Q252.10 10.72 252.31 10.98L252.31 10.98L252.31 10.98Q252.52 11.23 252.52 11.68L252.52 11.68L252.52 11.68Q252.52 11.79 252.50 11.91L252.50 11.91L252.50 11.91Q252.49 12.03 252.46 12.11L252.46 12.11L252.46 12.11Q252.17 12.04 251.82 12.03L251.82 12.03L251.82 12.03Q251.73 12.64 251.37 13.32L251.37 13.32L251.37 13.32Q251.01 14 250.49 14.60L250.49 14.60L250.49 14.60Q249.97 15.19 249.35 15.64L249.35 15.64L249.35 15.64Q248.74 16.09 248.14 16.24L248.14 16.24L248.14 16.24Q246.26 16.20 245.40 15.27L245.40 15.27L245.40 15.27Q244.54 14.34 244.54 12.36L244.54 12.36L244.54 12.36Q244.54 10.92 245.07 9.57L245.07 9.57L245.07 9.57Q245.60 8.22 246.48 7.17L246.48 7.17L246.48 7.17Q247.37 6.12 248.51 5.48L248.51 5.48L248.51 5.48Q249.65 4.84 250.88 4.84L250.88 4.84L250.88 4.84Q251.85 4.84 252.38 5.25L252.38 5.25L252.38 5.25Q252.92 5.66 252.92 6.40L252.92 6.40L252.92 6.40Q252.92 6.89 252.69 7.31L252.69 7.31L252.69 7.31Q252.46 7.73 251.93 8.22L251.93 8.22L251.93 8.22Q251.61 8.12 251.37 7.88L251.37 7.88L251.37 7.88Q251.13 7.63 251.08 7.31L251.08 7.31L251.08 7.31Q251.55 6.96 251.75 6.66L251.75 6.66L251.75 6.66Q251.94 6.37 251.94 5.96L251.94 5.96L251.94 5.96Q251.94 5.32 251.17 5.32L251.17 5.32L251.17 5.32Q250.54 5.32 249.82 5.79L249.82 5.79L249.82 5.79Q249.10 6.26 248.37 7.14L248.37 7.14L248.37 7.14Q247.34 8.39 246.86 9.71L246.86 9.71L246.86 9.71Q246.39 11.03 246.39 12.68L246.39 12.68L246.39 12.68Q246.39 13.30 246.51 13.80L246.51 13.80L246.51 13.80Q246.64 14.31 246.85 14.69L246.85 14.69L246.85 14.69Q247.06 15.06 247.34 15.29L247.34 15.29L247.34 15.29Q247.63 15.51 247.97 15.54L247.97 15.54L247.97 15.54Q248.42 15.44 248.86 15.09L248.86 15.09L248.86 15.09Q249.31 14.73 249.68 14.25L249.68 14.25L249.68 14.25Q250.05 13.76 250.31 13.21L250.31 13.21L250.31 13.21Q250.57 12.66 250.63 12.15L250.63 12.15L250.63 12.15Q250.24 12.24 249.88 12.31L249.88 12.31L249.88 12.31Q249.52 12.39 249.20 12.39L249.20 12.39L249.20 12.39Q248.78 12.39 248.47 12.18L248.47 12.18L248.47 12.18Q248.15 11.97 248.04 11.61L248.04 11.61L248.04 11.61Q248.29 11.47 248.77 11.31L248.77 11.31L248.77 11.31Q249.26 11.16 249.80 11.03L249.80 11.03L249.80 11.03Q250.35 10.89 250.87 10.81L250.87 10.81L250.87 10.81Q251.40 10.72 251.73 10.72ZM265.86 9.21L265.86 9.21L265.86 9.21Q266.32 9.21 266.58 9.46L266.58 9.46L266.58 9.46Q266.84 9.72 266.84 10.16L266.84 10.16L266.84 10.16Q266.84 10.28 266.82 10.39L266.82 10.39L266.82 10.39Q266.80 10.51 266.77 10.60L266.77 10.60L266.77 10.60Q266.59 10.57 266.36 10.55L266.36 10.55L266.36 10.55Q266.14 10.53 265.83 10.53L265.83 10.53L265.83 10.53Q265.23 10.53 264.61 10.63L264.61 10.63L264.61 10.63Q264.00 10.74 263.44 10.81L263.44 10.81L263.44 10.81Q263.12 11.55 262.85 12.24L262.85 12.24L262.85 12.24Q262.58 12.94 262.39 13.51L262.39 13.51L262.39 13.51Q262.21 14.08 262.10 14.50L262.10 14.50L262.10 14.50Q262.00 14.92 261.98 15.13L261.98 15.13L261.98 15.13Q263.12 14.90 264.27 14.73L264.27 14.73L264.27 14.73Q265.43 14.56 266.70 14.48L266.70 14.48L266.70 14.48Q266.85 14.71 266.96 14.99L266.96 14.99L266.96 14.99Q267.06 15.27 267.06 15.60L267.06 15.60L267.06 15.60Q267.06 15.68 267.06 15.78L267.06 15.78L267.06 15.78Q267.06 15.88 267.04 15.97L267.04 15.97L267.04 15.97Q266.64 15.96 266.21 15.95L266.21 15.95L266.21 15.95Q265.78 15.95 265.08 15.95L265.08 15.95L265.08 15.95Q264.61 15.95 264.20 15.97L264.20 15.97L264.20 15.97Q263.79 15.99 263.37 16.03L263.37 16.03L263.37 16.03Q262.95 16.07 262.48 16.14L262.48 16.14L262.48 16.14Q262.01 16.21 261.42 16.31L261.42 16.31L261.42 16.31Q260.78 16.06 260.18 15.08L260.18 15.08L260.18 15.08Q260.41 14.57 260.84 13.54L260.84 13.54L260.84 13.54Q261.27 12.52 261.93 10.79L261.93 10.79L261.93 10.79Q261.30 10.60 261.10 10.09L261.10 10.09L261.10 10.09Q261.17 10.02 261.51 9.92L261.51 9.92L261.51 9.92Q261.84 9.81 262.33 9.70L262.33 9.70L262.33 9.70Q262.54 9.16 262.69 8.75L262.69 8.75L262.69 8.75Q262.84 8.34 262.95 7.99L262.95 7.99L262.95 7.99Q263.06 7.63 263.15 7.29L263.15 7.29L263.15 7.29Q263.24 6.94 263.33 6.54L263.33 6.54L263.33 6.54Q262.84 6.51 262.56 6.27L262.56 6.27L262.56 6.27Q262.28 6.02 262.28 5.63L262.28 5.63L262.28 5.63Q262.28 5.52 262.31 5.36L262.31 5.36L262.31 5.36Q262.35 5.21 262.39 5.10L262.39 5.10L262.39 5.10Q262.67 5.14 262.93 5.15L262.93 5.15L262.93 5.15Q263.19 5.17 263.61 5.17L263.61 5.17L263.61 5.17Q264.49 5.17 265.26 5.12L265.26 5.12L265.26 5.12Q266.03 5.07 266.65 5.01L266.65 5.01L266.65 5.01Q267.27 4.96 267.72 4.91L267.72 4.91L267.72 4.91Q268.17 4.86 268.41 4.86L268.41 4.86L268.41 4.86Q268.73 4.86 268.98 5.19L268.98 5.19L268.98 5.19Q269.23 5.53 269.36 6.15L269.36 6.15L269.36 6.15Q268.93 6.10 268.65 6.09L268.65 6.09L268.65 6.09Q268.38 6.08 268.17 6.08L268.17 6.08L268.17 6.08Q267.40 6.08 266.76 6.15L266.76 6.15L266.76 6.15Q266.13 6.23 265.54 6.31L265.54 6.31L265.54 6.31Q265.45 6.44 265.35 6.64L265.35 6.64L265.35 6.64Q265.24 6.83 265.08 7.18L265.08 7.18L265.08 7.18Q264.91 7.53 264.66 8.06L264.66 8.06L264.66 8.06Q264.42 8.60 264.07 9.39L264.07 9.39L264.07 9.39Q264.60 9.31 265.07 9.26L265.07 9.26L265.07 9.26Q265.54 9.21 265.86 9.21ZM278.38 6.69L278.38 6.69L278.38 6.69Q277.82 6.69 277.51 6.38L277.51 6.38L277.51 6.38Q277.21 6.06 277.21 5.61L277.21 5.61L277.21 5.61Q277.21 5.50 277.25 5.35L277.25 5.35L277.25 5.35Q277.28 5.19 277.34 5.08L277.34 5.08L277.34 5.08Q277.52 5.17 277.88 5.20L277.88 5.20L277.88 5.20Q278.24 5.24 278.71 5.24L278.71 5.24L278.71 5.24Q279.43 5.24 280.33 5.17L280.33 5.17L280.33 5.17Q281.23 5.11 282.06 5.04L282.06 5.04L282.06 5.04Q282.88 4.97 283.51 4.91L283.51 4.91L283.51 4.91Q284.14 4.84 284.33 4.84L284.33 4.84L284.33 4.84Q284.84 4.84 285.07 5.23L285.07 5.23L285.07 5.23Q285.31 5.61 285.42 6.26L285.42 6.26L285.42 6.26Q285.05 6.23 284.70 6.21L284.70 6.21L284.70 6.21Q284.34 6.19 284.09 6.19L284.09 6.19L284.09 6.19Q283.64 6.19 283.19 6.22L283.19 6.22L283.19 6.22Q282.73 6.24 282.27 6.30L282.27 6.30L282.27 6.30Q282.07 6.71 281.83 7.26L281.83 7.26L281.83 7.26Q281.60 7.81 281.37 8.41L281.37 8.41L281.37 8.41Q281.13 9.02 280.92 9.61L280.92 9.61L280.92 9.61Q280.71 10.21 280.56 10.68L280.56 10.68L280.56 10.68Q280.25 11.61 280.02 12.39L280.02 12.39L280.02 12.39Q279.79 13.17 279.62 13.85L279.62 13.85L279.62 13.85Q279.44 14.53 279.31 15.15L279.31 15.15L279.31 15.15Q279.19 15.76 279.09 16.35L279.09 16.35L279.09 16.35Q278.15 16.21 277.52 15.18L277.52 15.18L277.52 15.18Q277.63 14.74 277.80 14.23L277.80 14.23L277.80 14.23Q277.96 13.72 278.17 13.07L278.17 13.07L278.17 13.07Q278.39 12.42 278.68 11.59L278.68 11.59L278.68 11.59Q278.98 10.77 279.36 9.72L279.36 9.72L279.36 9.72Q279.50 9.32 279.65 8.90L279.65 8.90L279.65 8.90Q279.80 8.47 279.95 8.05L279.95 8.05L279.95 8.05Q280.10 7.63 280.22 7.24L280.22 7.24L280.22 7.24Q280.34 6.85 280.42 6.52L280.42 6.52L280.42 6.52Q279.83 6.59 279.31 6.64L279.31 6.64L279.31 6.64Q278.78 6.69 278.38 6.69ZM301.59 14.38L301.59 14.38L301.59 14.38Q301.59 13.87 301.75 13.07L301.75 13.07L301.75 13.07Q301.91 12.26 302.17 11.33L302.17 11.33L302.17 11.33Q302.43 10.40 302.76 9.43L302.76 9.43L302.76 9.43Q303.10 8.46 303.45 7.60L303.45 7.60L303.45 7.60Q303.80 6.75 304.14 6.10L304.14 6.10L304.14 6.10Q304.47 5.46 304.74 5.18L304.74 5.18L304.74 5.18Q304.88 5.19 305.11 5.29L305.11 5.29L305.11 5.29Q305.34 5.38 305.58 5.50L305.58 5.50L305.58 5.50Q305.82 5.63 306.01 5.78L306.01 5.78L306.01 5.78Q306.21 5.92 306.26 6.05L306.26 6.05L306.26 6.05Q305.86 6.41 305.46 7.15L305.46 7.15L305.46 7.15Q305.06 7.88 304.69 8.82L304.69 8.82L304.69 8.82Q304.32 9.76 304.00 10.80L304.00 10.80L304.00 10.80Q303.67 11.84 303.44 12.82L303.44 12.82L303.44 12.82Q303.20 13.80 303.06 14.64L303.06 14.64L303.06 14.64Q302.93 15.48 302.93 16.00L302.93 16.00L302.93 16.00Q302.93 16.24 302.97 16.30L302.97 16.30L302.97 16.30Q302.67 16.28 302.53 16.19L302.53 16.19L302.53 16.19Q302.39 16.10 302.31 16.00L302.31 16.00L302.31 16.00Q302.23 15.89 302.17 15.79L302.17 15.79L302.17 15.79Q302.11 15.68 301.98 15.62L301.98 15.62L301.98 15.62Q301.88 15.58 301.81 15.43L301.81 15.43L301.81 15.43Q301.74 15.27 301.69 15.09L301.69 15.09L301.69 15.09Q301.64 14.90 301.62 14.70L301.62 14.70L301.62 14.70Q301.59 14.50 301.59 14.38ZM315.35 6.69L315.35 6.69L315.35 6.69Q314.79 6.69 314.49 6.38L314.49 6.38L314.49 6.38Q314.19 6.06 314.19 5.61L314.19 5.61L314.19 5.61Q314.19 5.50 314.22 5.35L314.22 5.35L314.22 5.35Q314.26 5.19 314.31 5.08L314.31 5.08L314.31 5.08Q314.50 5.17 314.85 5.20L314.85 5.20L314.85 5.20Q315.21 5.24 315.69 5.24L315.69 5.24L315.69 5.24Q316.40 5.24 317.30 5.17L317.30 5.17L317.30 5.17Q318.21 5.11 319.03 5.04L319.03 5.04L319.03 5.04Q319.86 4.97 320.49 4.91L320.49 4.91L320.49 4.91Q321.12 4.84 321.30 4.84L321.30 4.84L321.30 4.84Q321.82 4.84 322.05 5.23L322.05 5.23L322.05 5.23Q322.28 5.61 322.39 6.26L322.39 6.26L322.39 6.26Q322.03 6.23 321.67 6.21L321.67 6.21L321.67 6.21Q321.31 6.19 321.06 6.19L321.06 6.19L321.06 6.19Q320.61 6.19 320.16 6.22L320.16 6.22L320.16 6.22Q319.70 6.24 319.24 6.30L319.24 6.30L319.24 6.30Q319.05 6.71 318.81 7.26L318.81 7.26L318.81 7.26Q318.57 7.81 318.34 8.41L318.34 8.41L318.34 8.41Q318.11 9.02 317.90 9.61L317.90 9.61L317.90 9.61Q317.69 10.21 317.53 10.68L317.53 10.68L317.53 10.68Q317.23 11.61 317.00 12.39L317.00 12.39L317.00 12.39Q316.76 13.17 316.59 13.85L316.59 13.85L316.59 13.85Q316.41 14.53 316.29 15.15L316.29 15.15L316.29 15.15Q316.16 15.76 316.06 16.35L316.06 16.35L316.06 16.35Q315.13 16.21 314.50 15.18L314.50 15.18L314.50 15.18Q314.61 14.74 314.77 14.23L314.77 14.23L314.77 14.23Q314.93 13.72 315.15 13.07L315.15 13.07L315.15 13.07Q315.36 12.42 315.66 11.59L315.66 11.59L315.66 11.59Q315.95 10.77 316.33 9.72L316.33 9.72L316.33 9.72Q316.47 9.32 316.62 8.90L316.62 8.90L316.62 8.90Q316.78 8.47 316.93 8.05L316.93 8.05L316.93 8.05Q317.07 7.63 317.19 7.24L317.19 7.24L317.19 7.24Q317.31 6.85 317.39 6.52L317.39 6.52L317.39 6.52Q316.81 6.59 316.28 6.64L316.28 6.64L316.28 6.64Q315.76 6.69 315.35 6.69Z"></path></g></svg>